<svg width="124" height="122" viewBox="0 0 124 122" fill="none" xmlns="http://www.w3.org/2000/svg">
<g clip-path="url(#clip0_1_2587)">
<rect x="0.597046" width="123" height="122" rx="61" fill="url(#paint0_linear_1_2587)"/>
<path d="M91.822 64.8633C95.148 53.9073 97.198 35.1767 83.212 22.3667C72.5233 12.5766 43.647 11.59 33.6021 32.94C31.9252 36.504 34.2171 42.09 38.727 41.8867C40.4995 41.8053 41.597 47.3767 42.622 50.8333C41.187 64.8633 28.4024 65.1224 21.9171 75.8433C13.9221 89.06 23.7621 108.58 47.337 108.58C70.912 108.58 84.4265 89.2247 91.822 64.8633Z" fill="url(#paint1_linear_1_2587)"/>
<path d="M99.8171 96.9595C102.824 102.703 104.327 123.627 104.327 123.627H19.8671C19.8671 123.627 21.3705 102.703 24.3771 96.9595C28.8871 88.3439 62.0971 77.2667 62.0971 77.2667C62.0971 77.2667 95.3071 88.3439 99.8171 96.9595Z" fill="url(#paint2_linear_1_2587)"/>
<path d="M71.9371 82.1467C71.9371 82.1467 66.703 84.9933 61.888 84.9933C57.073 84.9933 52.2571 82.1467 52.2571 82.1467V73.2C51.2212 73.3624 50.1718 73.4242 49.1239 73.3846C39.2888 73.3838 35.5803 59.1745 37.4971 41.8867C38.7271 41.8867 41.5971 41.8867 45.6971 36.1933C44.6721 44.1233 56.5621 42.9033 61.0721 36.6C58.8171 44.1233 64.7621 49.2067 69.8871 46.1567C79.9366 40.1758 82.1957 58.4079 71.9371 58.56V82.1467Z" fill="url(#paint3_linear_1_2587)"/>
<g style="mix-blend-mode:multiply" opacity="0.782">
<path d="M52.2571 73.2C57.3431 72.2712 62.2097 70.4094 66.6071 67.71C66.6071 67.71 61.4821 76.4533 52.2571 76.4533V73.2Z" fill="#FFD7B8"/>
</g>
<path d="M62.1106 84.5765C65.0736 84.4435 71.937 83.0039 71.937 79.8937V77.2667C72.689 77.2667 74.8419 79.0283 75.9493 80.52C80.3264 86.4167 75.4712 91.7033 71.5114 91.7033C66.5152 91.7033 63.204 87.5627 62.097 85.5708C60.99 87.5635 57.6789 91.7033 52.6826 91.7033C48.7228 91.7033 43.8676 86.4167 48.2448 80.52C49.3522 79.0283 51.5051 77.2667 52.257 77.2667V79.8937C52.257 83.0039 59.3058 84.4435 62.1106 84.5765Z" fill="white"/>
<path d="M60.457 112.24C60.457 111.918 60.5532 111.604 60.7334 111.336C60.9136 111.069 61.1698 110.86 61.4694 110.737C61.7691 110.614 62.0988 110.582 62.417 110.645C62.7351 110.707 63.0273 110.862 63.2567 111.09C63.486 111.317 63.6422 111.607 63.7055 111.923C63.7688 112.238 63.7363 112.565 63.6122 112.863C63.4881 113.16 63.2779 113.414 63.0082 113.593C62.7385 113.771 62.4214 113.867 62.097 113.867C61.6621 113.867 61.2449 113.695 60.9374 113.39C60.6298 113.085 60.457 112.671 60.457 112.24ZM60.457 104.107C60.457 103.785 60.5532 103.47 60.7334 103.203C60.9136 102.935 61.1698 102.727 61.4694 102.604C61.7691 102.481 62.0988 102.449 62.417 102.511C62.7351 102.574 63.0273 102.729 63.2567 102.956C63.486 103.184 63.6422 103.474 63.7055 103.789C63.7688 104.105 63.7363 104.432 63.6122 104.729C63.4881 105.026 63.2779 105.28 63.0082 105.459C62.7385 105.638 62.4214 105.733 62.097 105.733C61.6621 105.733 61.2449 105.562 60.9374 105.257C60.6298 104.952 60.457 104.538 60.457 104.107ZM60.457 95.9733C60.457 95.6516 60.5532 95.3371 60.7334 95.0696C60.9136 94.8021 61.1698 94.5936 61.4694 94.4705C61.7691 94.3474 62.0988 94.3152 62.417 94.3779C62.7351 94.4407 63.0273 94.5956 63.2567 94.8231C63.486 95.0506 63.6422 95.3405 63.7055 95.656C63.7688 95.9715 63.7363 96.2986 63.6122 96.5958C63.4881 96.8931 63.2779 97.1471 63.0082 97.3259C62.7385 97.5046 62.4214 97.6 62.097 97.6C61.6621 97.6 61.2449 97.4286 60.9374 97.1236C60.6298 96.8185 60.457 96.4048 60.457 95.9733Z" fill="url(#paint4_linear_1_2587)"/>
</g>
<defs>
<linearGradient id="paint0_linear_1_2587" x1="62.097" y1="122" x2="62.097" y2="0" gradientUnits="userSpaceOnUse">
<stop stop-color="#AA99FE"/>
<stop offset="1" stop-color="#AA99FE"/>
</linearGradient>
<linearGradient id="paint1_linear_1_2587" x1="56.7187" y1="15.6926" x2="56.7187" y2="108.58" gradientUnits="userSpaceOnUse">
<stop stop-color="#130027"/>
<stop offset="1" stop-color="#130017"/>
</linearGradient>
<linearGradient id="paint2_linear_1_2587" x1="62.0971" y1="123.627" x2="62.0971" y2="77.2667" gradientUnits="userSpaceOnUse">
<stop stop-color="#E6864E"/>
<stop offset="1" stop-color="#E67240"/>
</linearGradient>
<linearGradient id="paint3_linear_1_2587" x1="57.8112" y1="36.1933" x2="57.8112" y2="84.9933" gradientUnits="userSpaceOnUse">
<stop stop-color="#FFE0CC"/>
<stop offset="1" stop-color="#FFEADB"/>
</linearGradient>
<linearGradient id="paint4_linear_1_2587" x1="62.097" y1="94.3467" x2="62.097" y2="113.867" gradientUnits="userSpaceOnUse">
<stop stop-color="#130027"/>
<stop offset="1" stop-color="#130017"/>
</linearGradient>
<clipPath id="clip0_1_2587">
<rect x="0.597046" width="123" height="122" rx="61" fill="white"/>
</clipPath>
</defs>
</svg>
