<svg width="123" height="123" viewBox="0 0 123 123" fill="none" xmlns="http://www.w3.org/2000/svg">
<rect width="122.388" height="122.388" rx="61.194" transform="matrix(-1 0 0 1 122.388 0.611938)" fill="url(#paint0_linear_1_2590)"/>
<rect width="122.388" height="122.388" rx="61.194" transform="matrix(-1 0 0 1 122.388 0.611938)" fill="url(#paint1_linear_1_2590)"/>
<g clip-path="url(#clip0_1_2590)">
<path d="M38.7562 85.5835C46.2354 91.0229 53.7149 95.3746 61.194 95.3746C68.6732 95.3746 76.1527 91.0229 83.6319 85.5835C77.467 83.7069 74.3393 80.9056 74.2488 77.1795C74.2488 76.5154 74.2537 75.5722 74.2582 73.8012C74.2582 73.52 74.2588 73.232 74.2602 72.9372C74.2724 68.1885 74.2924 61.9222 74.3206 55.5581C80.1675 47.9794 78.0195 39.0944 76.1874 39.316C73.9412 39.5893 54.4802 21.1217 50.7474 20.1749C47.0146 19.228 37.5323 22.2848 35.9005 30.801C34.2687 39.3172 33.5866 60.7832 39.7761 69.3532C41.5374 71.792 44.3116 72.746 48.0985 72.2151C48.1038 73.9975 48.1144 74.9978 48.1393 77.0164C48.0908 80.912 44.9633 83.709 38.7562 85.5835Z" fill="url(#paint2_linear_1_2590)"/>
<path d="M48.1393 72.2089C57.1144 71.189 62.8259 67.3134 62.8259 67.3134C62.8259 67.3134 56.2985 75.4726 48.1393 77.1045V72.2089Z" fill="#FFCCA9"/>
<path d="M77.3085 55.6866C80.1193 48.9267 91.3831 35.1593 81.6737 26.5921C78.41 10.6816 60.3781 12.4428 48.3433 16.1144C40.2547 18.5822 34.1463 23.4577 32.8408 19.7861C24.6816 26.5921 28.7678 33.2488 34.1463 35.1593C39.028 36.8931 47.2826 38.6269 61.3189 36.9951C63.8262 36.7034 63.3012 44.3824 64.6409 45.2126C66.6509 46.4581 68.211 38.6269 73.7217 40.9784C79.2324 43.3299 75.9622 54.233 70.0468 54.233C68.007 54.233 66.9871 59.8413 72.4946 62.493C76.4926 64.4577 75.4821 60.0791 77.3085 55.6866Z" fill="url(#paint3_linear_1_2590)"/>
<path d="M104.03 98.0361C107.914 105.933 110.149 124.146 110.149 124.146H12.2388C12.2388 124.146 14.4753 105.931 18.3582 98.0361C22.2412 90.1413 44.9164 82.8188 44.9164 82.8188C57.4461 87.7115 65.1137 87.7115 77.4598 82.8159C77.4598 82.8159 100.146 90.1392 104.03 98.0361Z" fill="url(#paint4_linear_1_2590)"/>
<path d="M64.0498 85.6717L66.0896 123.204H56.2985L58.3383 85.6717C58.3383 85.6717 60.2423 83.6319 61.194 83.6319C62.1458 83.6319 64.0498 85.6717 64.0498 85.6717Z" fill="url(#paint5_linear_1_2590)"/>
<path d="M64.5144 93.2973L58.0992 89.5906L58.3383 85.6717C59.6076 84.3118 60.5595 83.6319 61.194 83.6319C61.8285 83.6319 62.7804 84.3118 64.0497 85.6717L64.5148 93.2973H64.5144Z" fill="#BABABB"/>
<path d="M61.194 83.6286L57.1144 90.9751L44.4677 83.2239L48.1393 77.9204L61.194 82.7429L74.2487 77.9204L77.9204 83.2239L65.2736 90.9751L61.194 83.6286Z" fill="white"/>
</g>
<defs>
<linearGradient id="paint0_linear_1_2590" x1="61.194" y1="122.388" x2="61.194" y2="0" gradientUnits="userSpaceOnUse">
<stop stop-color="#AA99FE"/>
<stop offset="1" stop-color="#AA99FE"/>
</linearGradient>
<linearGradient id="paint1_linear_1_2590" x1="61.194" y1="122.388" x2="61.194" y2="0" gradientUnits="userSpaceOnUse">
<stop stop-color="#F3F6F6"/>
<stop offset="1" stop-color="#F3F6F6"/>
</linearGradient>
<linearGradient id="paint2_linear_1_2590" x1="59.2039" y1="20.0092" x2="59.2039" y2="95.3746" gradientUnits="userSpaceOnUse">
<stop stop-color="#FFE3D1"/>
<stop offset="1" stop-color="#FFE9D9"/>
</linearGradient>
<linearGradient id="paint3_linear_1_2590" x1="56.8862" y1="13.6209" x2="56.8862" y2="62.9762" gradientUnits="userSpaceOnUse">
<stop stop-color="#D1D1D6"/>
<stop offset="1" stop-color="#D1D1D6"/>
</linearGradient>
<linearGradient id="paint4_linear_1_2590" x1="61.1941" y1="82.8159" x2="61.1941" y2="124.146" gradientUnits="userSpaceOnUse">
<stop stop-color="#D1D1D6"/>
<stop offset="1" stop-color="#D1D1D6"/>
</linearGradient>
<linearGradient id="paint5_linear_1_2590" x1="61.194" y1="83.6319" x2="61.194" y2="123.204" gradientUnits="userSpaceOnUse">
<stop stop-color="#B9B9BB"/>
<stop offset="1" stop-color="#B9B9BA"/>
</linearGradient>
<clipPath id="clip0_1_2590">
<rect width="122.388" height="122.388" rx="61.194" fill="white"/>
</clipPath>
</defs>
</svg>
